<svg xmlns="http://www.w3.org/2000/svg" viewBox="0 0 731.03 116.17"><defs><style>.cls-1{fill:#fff;}</style></defs><g id="Capa_2" data-name="Capa 2"><g id="Logo2Negro"><path class="cls-1" d="M37,90.44,13.14,61.24v29.2H0V24.91H13.14V54.29L37,24.91H52.86l-27,32.48L53.61,90.44Z"/><path class="cls-1" d="M75.39,35.52V52H97.46V62.37H75.39V79.74h24.88v10.7h-38V24.81h38V35.52Z"/><path class="cls-1" d="M125.34,80h21.6V90.44H112.2V24.91h13.14Z"/><path class="cls-1" d="M168.44,35.52V52H190.5V62.37H168.44V79.74h24.88v10.7h-38V24.81h38V35.52Z"/><path class="cls-1" d="M264.11,24.91l-24,65.53h-16l-24-65.53h14.08l18,52.11,17.93-52.11Z"/><path class="cls-1" d="M285.52,86.78a32.33,32.33,0,0,1-12.21-12,33.53,33.53,0,0,1-4.5-17.32,33.33,33.33,0,0,1,4.5-17.23,32.33,32.33,0,0,1,12.21-12,35.31,35.31,0,0,1,33.85,0,32.06,32.06,0,0,1,12.11,12,33.6,33.6,0,0,1,4.46,17.23,33.8,33.8,0,0,1-4.46,17.32,32,32,0,0,1-12.16,12,35.22,35.22,0,0,1-33.8,0Zm27.32-10.09a18.35,18.35,0,0,0,7-7.66,25.06,25.06,0,0,0,2.54-11.54A24.87,24.87,0,0,0,319.88,46a18.05,18.05,0,0,0-7-7.55,20.22,20.22,0,0,0-10.42-2.63A20.51,20.51,0,0,0,292,38.43,18,18,0,0,0,284.86,46a24.87,24.87,0,0,0-2.53,11.51A25.05,25.05,0,0,0,284.86,69,18.27,18.27,0,0,0,292,76.69a20.33,20.33,0,0,0,10.47,2.67A20,20,0,0,0,312.84,76.69Z"/><path class="cls-1" d="M389.61,29.05V56h25.78v3.5H389.61V86.69h28.55v3.5H385.47V25.55h32.69v3.5Z"/><path class="cls-1" d="M438.41,88.62a18,18,0,0,1-7.32-6,16.82,16.82,0,0,1-3-8.38h4.33a15.64,15.64,0,0,0,4.74,9q4,4,12.2,4a18.56,18.56,0,0,0,8.33-1.75,13.23,13.23,0,0,0,5.48-4.78A12.29,12.29,0,0,0,465.12,74a11.44,11.44,0,0,0-2.26-7.45,13.92,13.92,0,0,0-5.62-4.15,80.79,80.79,0,0,0-9.07-2.94,73.3,73.3,0,0,1-10.08-3.32A15.94,15.94,0,0,1,431.65,51Q429,47.56,429,41.57a15.3,15.3,0,0,1,2.44-8.42,16.78,16.78,0,0,1,7-6,23.3,23.3,0,0,1,10.41-2.21q8.56,0,13.81,4.23a16.49,16.49,0,0,1,6.26,10.41h-4.42A13.7,13.7,0,0,0,462,34.48a14.33,14.33,0,0,0-5.34-4.28,18.52,18.52,0,0,0-8.24-1.7A16.84,16.84,0,0,0,437.58,32a11.51,11.51,0,0,0-4.41,9.44,11.43,11.43,0,0,0,2.3,7.5,14.47,14.47,0,0,0,5.66,4.24,66.37,66.37,0,0,0,9.07,2.9,81,81,0,0,1,10.08,3.36,15.76,15.76,0,0,1,6.36,5.07c1.74,2.3,2.62,5.41,2.62,9.34a15.82,15.82,0,0,1-2.3,8.2,17.3,17.3,0,0,1-6.77,6.3,22.24,22.24,0,0,1-10.82,2.44A25.41,25.41,0,0,1,438.41,88.62Z"/><path class="cls-1" d="M517.41,25.55v3.5H499V90.19h-4.14V29.05H476.44v-3.5Z"/><path class="cls-1" d="M531,25.55V66q0,11,5,16.07t13.54,5.11q8.48,0,13.35-5.06T567.78,66V25.55h4.14V65.88q0,12.62-6.07,18.78t-16.3,6.17q-10.21,0-16.44-6.21T526.9,65.88V25.55Z"/><path class="cls-1" d="M630.07,34.11Q639,42.68,639,58t-8.89,23.76q-8.88,8.48-25.28,8.47H586.66V25.55h18.13Q621.19,25.55,630.07,34.11Zm-3,45q7.63-7.59,7.64-21.13t-7.64-21.27q-7.65-7.63-22.29-7.64h-14V86.69h14Q619.44,86.69,627.08,79.09Z"/><path class="cls-1" d="M655.62,25.55V90.19h-4.14V25.55Z"/><path class="cls-1" d="M683.52,86.74A29.4,29.4,0,0,1,672.29,75a35.37,35.37,0,0,1-4-17,35.3,35.3,0,0,1,4-17.08,29.4,29.4,0,0,1,11.23-11.69,33.08,33.08,0,0,1,32.23,0A29.46,29.46,0,0,1,727,40.88,35.42,35.42,0,0,1,731,58a35.48,35.48,0,0,1-4,17,29.47,29.47,0,0,1-11.23,11.74,33.08,33.08,0,0,1-32.23,0Zm29.92-3.09a25.29,25.29,0,0,0,9.72-10.22A32.35,32.35,0,0,0,726.7,58a32.58,32.58,0,0,0-3.54-15.56,25.29,25.29,0,0,0-9.72-10.22,28.36,28.36,0,0,0-27.62,0,25.72,25.72,0,0,0-9.76,10.22A32.24,32.24,0,0,0,672.47,58a32,32,0,0,0,3.59,15.47,25.72,25.72,0,0,0,9.76,10.22,28.36,28.36,0,0,0,27.62,0Z"/><path class="cls-1" d="M359,116.17a2.5,2.5,0,0,1-2.5-2.5V2.5a2.5,2.5,0,0,1,5,0V113.67A2.5,2.5,0,0,1,359,116.17Z"/></g></g></svg>