<svg xmlns="http://www.w3.org/2000/svg" viewBox="0 0 845.16 324.86"><defs><style>.cls-1{fill:#fff;}</style></defs><g id="Capa_2" data-name="Capa 2"><g id="Logo1Negro"><g id="Icono2_copia_7" data-name="Icono2 copia 7"><path class="cls-1" d="M269.27,324.86,128.6,243.64V81.21L269.27,0,409.94,81.21V243.64ZM148.6,232.1l120.67,69.66L389.94,232.1V92.76L269.27,23.09,148.6,92.76Z"/><path class="cls-1" d="M140.67,324.86,0,243.64V81.21L140.67,0,281.34,81.21V243.64ZM20,232.1l120.67,69.66L261.34,232.1V92.76L140.67,23.09,20,92.76Z"/></g><path class="cls-1" d="M477.88,163l-29.3-35.87V163H432.43V82.49h16.15V118.6l29.3-36.11h19.49l-33.22,39.92L498.29,163Z"/><path class="cls-1" d="M525.06,95.53v20.18h27.1v12.81h-27.1v21.34h30.57V163H508.91V82.38h46.72V95.53Z"/><path class="cls-1" d="M586.42,150.21H613V163H570.27V82.49h16.15Z"/><path class="cls-1" d="M639.37,95.53v20.18h27.11v12.81H639.37v21.34h30.57V163H623.22V82.38h46.72V95.53Z"/><path class="cls-1" d="M756.92,82.49,727.39,163H707.78L678.25,82.49h17.3l22.15,64,22-64Z"/><path class="cls-1" d="M783.22,158.51a39.6,39.6,0,0,1-15-14.71,41.13,41.13,0,0,1-5.54-21.28,41,41,0,0,1,5.54-21.17,39.57,39.57,0,0,1,15-14.7,43.35,43.35,0,0,1,41.58,0,39.25,39.25,0,0,1,14.88,14.7,41.21,41.21,0,0,1,5.48,21.17,41.38,41.38,0,0,1-5.48,21.28,39.2,39.2,0,0,1-14.93,14.71,43.26,43.26,0,0,1-41.53,0Zm33.57-12.4a22.53,22.53,0,0,0,8.65-9.4,31,31,0,0,0,3.11-14.19,30.58,30.58,0,0,0-3.11-14.13,22.29,22.29,0,0,0-8.65-9.29A25,25,0,0,0,804,95.87a25.3,25.3,0,0,0-12.86,3.23,22.18,22.18,0,0,0-8.71,9.29,30.46,30.46,0,0,0-3.11,14.13,30.83,30.83,0,0,0,3.11,14.19,22.4,22.4,0,0,0,8.71,9.4A24.93,24.93,0,0,0,804,149.4,24.65,24.65,0,0,0,816.79,146.11Z"/><path class="cls-1" d="M433.35,192.47v22.75h21.74v2.95H433.35v22.9h24.07v3H429.86v-54.5h27.56v2.95Z"/><path class="cls-1" d="M474.5,242.7a15.2,15.2,0,0,1-6.17-5,14.12,14.12,0,0,1-2.52-7.07h3.65a13.16,13.16,0,0,0,4,7.61q3.39,3.35,10.29,3.34a15.63,15.63,0,0,0,7-1.48,11.25,11.25,0,0,0,4.62-4,10.33,10.33,0,0,0,1.63-5.67,9.69,9.69,0,0,0-1.9-6.29,11.79,11.79,0,0,0-4.74-3.49,67.9,67.9,0,0,0-7.65-2.49,61.78,61.78,0,0,1-8.5-2.79A13.51,13.51,0,0,1,468.8,211c-1.48-1.94-2.22-4.6-2.22-8a13,13,0,0,1,2.06-7.11,14.18,14.18,0,0,1,5.86-5.08,19.75,19.75,0,0,1,8.78-1.86q7.22,0,11.64,3.57a13.91,13.91,0,0,1,5.28,8.77h-3.72a11.54,11.54,0,0,0-2.06-4.27,12,12,0,0,0-4.51-3.61A15.49,15.49,0,0,0,483,192a14.21,14.21,0,0,0-9.17,3A10.74,10.74,0,0,0,472,209.28a12.21,12.21,0,0,0,4.77,3.57,56.77,56.77,0,0,0,7.65,2.45,67.41,67.41,0,0,1,8.5,2.83,13.29,13.29,0,0,1,5.36,4.27,12.69,12.69,0,0,1,2.21,7.88,13.24,13.24,0,0,1-1.94,6.91,14.48,14.48,0,0,1-5.7,5.32,18.86,18.86,0,0,1-9.13,2.06A21.38,21.38,0,0,1,474.5,242.7Z"/><path class="cls-1" d="M541.12,189.52v2.95H525.59V244H522.1V192.47H506.57v-2.95Z"/><path class="cls-1" d="M552.61,189.52V223.6q0,9.24,4.19,13.55t11.42,4.31q7.14,0,11.25-4.27t4.12-13.59V189.52h3.49v34q0,10.64-5.12,15.84t-13.74,5.2q-8.62,0-13.86-5.24t-5.24-15.8v-34Z"/><path class="cls-1" d="M636.11,196.74q7.5,7.22,7.49,20.11t-7.49,20Q628.63,244,614.8,244H599.5v-54.5h15.3Q628.62,189.52,636.11,196.74Zm-2.52,37.93q6.43-6.4,6.44-17.82t-6.44-17.94q-6.45-6.43-18.79-6.44H603v48.6h11.8Q627.15,241.07,633.59,234.67Z"/><path class="cls-1" d="M657.66,189.52V244h-3.5v-54.5Z"/><path class="cls-1" d="M681.18,241.11a24.68,24.68,0,0,1-9.47-9.9,31.94,31.94,0,0,1,0-28.76,24.77,24.77,0,0,1,9.47-9.86,27.86,27.86,0,0,1,27.18,0,24.84,24.84,0,0,1,9.47,9.86,32,32,0,0,1,0,28.76,24.75,24.75,0,0,1-9.47,9.9,27.92,27.92,0,0,1-27.18,0Zm25.24-2.6a21.49,21.49,0,0,0,8.19-8.62,30.1,30.1,0,0,0,0-26.16,21.49,21.49,0,0,0-8.19-8.62,23.91,23.91,0,0,0-23.3,0,21.65,21.65,0,0,0-8.23,8.62,29.75,29.75,0,0,0,0,26.16,21.65,21.65,0,0,0,8.23,8.62,23.91,23.91,0,0,0,23.3,0Z"/></g></g></svg>